<?xml version="1.0" encoding="UTF-8" standalone="no"?>
<svg
   width="2098"
   height="269"
   viewBox="0 0 2098 269"
   fill="none"
   version="1.1"
   id="svg6"
   sodipodi:docname="White - Horizontal.svg"
   inkscape:version="1.2.1 (9c6d41e, 2022-07-14)"
   xmlns:inkscape="http://www.inkscape.org/namespaces/inkscape"
   xmlns:sodipodi="http://sodipodi.sourceforge.net/DTD/sodipodi-0.dtd"
   xmlns="http://www.w3.org/2000/svg"
   xmlns:svg="http://www.w3.org/2000/svg">
  <defs
     id="defs10" />
  <sodipodi:namedview
     id="namedview8"
     pagecolor="#ffffff"
     bordercolor="#000000"
     borderopacity="0.25"
     inkscape:showpageshadow="2"
     inkscape:pageopacity="0.0"
     inkscape:pagecheckerboard="0"
     inkscape:deskcolor="#d1d1d1"
     showgrid="false"
     inkscape:zoom="0.59389895"
     inkscape:cx="1049"
     inkscape:cy="133.86116"
     inkscape:window-width="1390"
     inkscape:window-height="1205"
     inkscape:window-x="0"
     inkscape:window-y="25"
     inkscape:window-maximized="0"
     inkscape:current-layer="svg6" />
  <path
     fill-rule="evenodd"
     clip-rule="evenodd"
     d="M2097 211.697H2066.56L2058.78 134.475L2006.92 217.701L1955.25 135.256L1947.86 211.697H1917.22L1937.82 55.496L2007.3 165.618L2076.4 55.6424L2097 211.697ZM1838.47 158.393L1815.47 110.117L1792.85 158.393H1838.47ZM1895.57 210.867H1863.73L1850.52 182.946H1781.62L1768.41 210.867H1736.96L1816.29 52.0303L1895.57 210.867ZM1714.78 210.867H1618.35V58.8641H1708.44V84.5884H1647.17V117.439H1696.82V143.31H1647.17V184.752H1715.02L1714.78 210.867ZM1495.09 128.129H1504.69C1526.16 128.129 1536.15 120.661 1536.15 105.578C1536.15 92.9354 1527.12 84.4908 1505.51 84.4908H1495.09V128.129ZM1593.86 211.111H1554.63L1497.78 154.391H1494.75V211.062H1466.33V58.8641H1497.54C1526.78 58.8641 1565.82 64.6728 1565.82 105.724C1565.82 134.475 1549.21 146.727 1529.38 151.755L1593.86 211.111ZM1392.57 211.111H1364.14V84.5884H1319.49V58.8641H1437.42V84.5884H1392.67L1392.57 211.111ZM1191.33 192.806L1206.16 172.305C1216.78 182.424 1230.65 188.286 1245.2 188.804C1260.62 188.804 1268.83 181.579 1268.83 170.499C1268.83 138.331 1201.6 143.359 1201.6 96.8892C1201.6 69.7493 1225.61 55.2519 1251.06 55.2519C1267.14 55.4666 1282.55 61.7872 1294.28 72.9709L1280.5 94.3021C1272.89 86.3101 1262.61 81.5039 1251.68 80.8298C1241.46 80.8298 1231.66 85.223 1231.66 95.4736C1231.66 122.223 1299.56 116.219 1299.56 169.913C1299.56 193.441 1278.91 214.333 1243.47 214.333C1224.08 213.678 1205.57 205.95 1191.33 192.562V192.806ZM1166.26 210.916H1069.93V58.8641H1160.07V84.5884H1098.41V117.439H1148.06V143.31H1098.41V184.752H1166.26V210.916ZM1011.69 153.366H973.273V128.422H1041.36C1041.36 193.197 1004.1 214.479 968.279 214.479C921.605 214.479 883.575 179.92 883.575 135.891C883.575 89.2256 918.82 55.4472 965.494 55.4472C1002.52 55.4472 1023.12 74.1425 1024.12 75.314L1010.15 96.8404C1009.14 95.4248 993.297 81.1715 965.878 81.1715C934.042 81.1715 913.826 104.504 913.826 135.451C913.873 142.628 915.336 149.723 918.126 156.316C920.917 162.909 924.98 168.866 930.074 173.835C935.168 178.805 941.191 182.685 947.786 185.248C954.382 187.81 961.415 189.003 968.471 188.755C991.664 188.755 1010.06 173.086 1011.69 153.366ZM823.215 158.979L800.214 110.752L777.598 158.979H823.215ZM879.685 210.867H847.849L834.644 182.946H765.977L752.772 210.867H721.128L800.406 52.0303L879.685 210.867ZM684.826 217.75L637.624 116.073L591.43 217.359L526.557 58.8641H558.297L593.446 151.608L638.056 52.3231L682.857 151.218L716.998 58.8641H748.306L684.826 217.75Z"
     fill="white"
     id="path2"
     style="fill:#8f5de7;fill-opacity:1" />
  <path
     fill-rule="evenodd"
     clip-rule="evenodd"
     d="M290.782 261.876C290.198 263.807 289.039 265.505 287.465 266.738C285.891 267.971 283.98 268.677 281.995 268.759H279.018C275.368 268.759 272.775 265.879 270.759 262.218L238.202 189.634C256.848 183.684 274.001 173.692 288.477 160.346C313.879 138.527 327.66 129.447 346.1 124.81C346.1 124.81 327.66 170.499 290.782 261.876ZM102.309 261.876C65.3671 170.499 46.912 124.778 46.944 124.712C65.4312 129.594 79.2125 138.429 104.566 160.297C119.031 173.658 136.188 183.653 154.842 189.585L122.333 262.218C120.172 265.928 117.771 268.759 114.074 268.759H111.097C109.135 268.691 107.242 268.013 105.671 266.817C104.1 265.622 102.926 263.966 102.309 262.072V261.876ZM362.378 84.1979C339.831 85.2983 317.961 92.3835 298.945 104.748C298.945 104.748 311.574 71.653 336.928 5.41408C337.45 3.9773 338.373 2.72677 339.584 1.81621C340.796 0.905652 342.242 0.37474 343.747 0.288737H385.811C386.943 0.149587 388.091 0.314146 389.141 0.766046C390.191 1.21795 391.106 1.94144 391.796 2.86455C392.485 3.78765 392.925 4.87821 393.072 6.02772C393.218 7.17724 393.065 8.34565 392.63 9.41673L362.378 84.1979ZM30.7618 84.1979L0.510082 9.51435C0.0670246 8.43826 -0.0914141 7.26307 0.0504984 6.10548C0.192411 4.94789 0.629738 3.84817 1.31905 2.91553C2.00837 1.98289 2.92569 1.24977 3.97992 0.788965C5.03416 0.328163 6.18864 0.155712 7.32872 0.288737H49.393C50.9218 0.383655 52.3878 0.940913 53.6028 1.88896C54.8177 2.83702 55.7262 4.13258 56.2116 5.60933C81.5654 71.8645 94.2263 104.976 94.1943 104.943C75.1693 92.6132 53.2999 85.5618 30.7618 84.4908V84.1979ZM128.912 132.571L184.997 6.92727C185.533 5.00697 186.673 3.31801 188.242 2.11902C189.812 0.920036 191.725 0.277124 193.689 0.288737H198.491C200.473 0.257632 202.413 0.877196 204.022 2.05548C205.631 3.23377 206.823 4.90798 207.422 6.82965C245.293 90.8527 264.228 132.848 264.228 132.815C252.495 143.465 238.439 151.128 223.22 155.172C223.22 155.172 214.337 136.965 197.002 100.111C196.666 99.4275 196.33 99.0858 196.042 99.0858C195.754 99.0858 195.417 99.4275 195.081 100.111C178.083 136.883 169.615 155.237 169.679 155.172C154.588 151.009 140.64 143.377 128.912 132.864V132.571Z"
     fill="white"
     id="path4"
     style="fill:#8f5de7;fill-opacity:1" />
</svg>
